<svg width="28" height="28" viewBox="0 0 28 28" fill="none" xmlns="http://www.w3.org/2000/svg">
<g id="white">
<path id="Union" fill-rule="evenodd" clip-rule="evenodd" d="M13.9147 21.1023C12.4069 20.8758 10.9953 20.2553 9.86603 19.275C9.81637 19.2311 9.76671 19.1846 9.71964 19.1404L9.71091 19.1322C9.60542 19.0361 9.50614 18.9368 9.40687 18.8344C9.30759 18.732 9.21451 18.6265 9.12144 18.5211L9.07399 18.4657C8.99918 18.3785 8.92374 18.2906 8.85463 18.1984C7.80289 16.8488 7.22894 15.2014 7.22894 13.4578C7.22894 11.6646 7.83392 9.96758 8.9446 8.59629C8.95546 8.58233 8.96632 8.56914 8.97717 8.55596C8.98803 8.54277 8.99889 8.52959 9.00975 8.51563C9.16177 8.33258 9.32 8.15574 9.49063 7.98821C9.83811 7.64073 10.2135 7.33669 10.6106 7.06678C10.7254 6.98922 10.8402 6.91165 10.9581 6.8434C10.9814 6.82944 11.0054 6.81548 11.0294 6.80152C11.0535 6.78756 11.0775 6.7736 11.1008 6.75963C11.9633 6.27565 12.9188 5.94989 13.9178 5.79787C14.5849 5.69859 15.1712 5.34491 15.5715 4.80198C15.9717 4.25905 16.1392 3.59202 16.0368 2.92499C15.9344 2.25796 15.5808 1.6685 15.0409 1.26828C14.5321 0.892881 13.9178 0.728451 13.2942 0.7905V0.787398L13.2384 0.796705C13.226 0.798256 13.2136 0.799032 13.2012 0.799807C13.1888 0.800583 13.1764 0.801359 13.1639 0.80291C12.9406 0.837037 12.7203 0.877369 12.5 0.920803C10.0212 1.39858 7.73774 2.59303 5.9166 4.41417C0.940251 9.39052 0.930944 17.4848 5.89178 22.4705L5.9197 22.4984L5.9228 22.5015L5.9259 22.5046C7.9394 24.515 10.5082 25.7653 13.2911 26.1252V26.1097C13.9147 26.1717 14.5321 26.0073 15.0378 25.6319C15.5808 25.2317 15.9344 24.6422 16.0337 23.9752C16.133 23.3082 15.9686 22.6411 15.5684 22.0982C15.1681 21.5553 14.5818 21.2016 13.9147 21.1023ZM21.9687 8.58699C23.9977 8.58699 25.6483 6.98302 25.6483 5.01296C25.6483 2.98395 23.9977 1.33344 21.9687 1.33344C19.9987 1.33344 18.3947 2.98395 18.3947 5.01296C18.3947 6.98302 19.9987 8.58699 21.9687 8.58699ZM21.6585 16.1694C24.2118 16.1694 25.1519 17.5717 25.49 18.7476C26.2005 21.2171 24.7672 25.5047 21.8508 27.329L21.2924 27.6795V23.302C19.4775 23.1158 18.0814 21.5894 18.0814 19.7434C18.0814 17.7734 19.6884 16.1694 21.6585 16.1694Z" fill="white"/>
</g>
</svg>
