<svg width="20" height="20" fill="none" xmlns="http://www.w3.org/2000/svg"><g id="ant-design:instagram-filled"><path id="Vector" d="M9.498 7.519a2.84 2.84 0 0 0-2.835 2.835 2.84 2.84 0 0 0 2.835 2.834 2.84 2.84 0 0 0 2.834-2.835A2.84 2.84 0 0 0 9.498 7.52Zm8.501 2.835c0-1.174.011-2.337-.055-3.51-.066-1.36-.376-2.568-1.371-3.563-.998-.997-2.204-1.306-3.564-1.372-1.174-.065-2.337-.055-3.509-.055-1.174 0-2.337-.01-3.509.055-1.36.066-2.568.377-3.564 1.372-.997.997-1.305 2.203-1.371 3.564C.99 8.019 1 9.182 1 10.354c0 1.171-.011 2.337.055 3.508.066 1.361.376 2.569 1.371 3.564.998.997 2.203 1.306 3.564 1.372 1.174.066 2.337.055 3.509.055 1.174 0 2.337.01 3.509-.055 1.36-.066 2.568-.377 3.564-1.372.997-.997 1.305-2.203 1.371-3.564.068-1.171.055-2.335.055-3.508Zm-8.501 4.36a4.355 4.355 0 0 1-4.361-4.36 4.355 4.355 0 0 1 4.36-4.362 4.355 4.355 0 0 1 4.362 4.362 4.355 4.355 0 0 1-4.361 4.36Zm4.54-7.882a1.017 1.017 0 0 1-1.019-1.018c0-.564.455-1.019 1.019-1.019a1.017 1.017 0 1 1 0 2.037Z" fill="#fff"/></g></svg>