<svg width="48" height="67" viewBox="0 0 48 67" fill="none" xmlns="http://www.w3.org/2000/svg">
<rect x="3" width="42" height="42" rx="21" fill="#1877F2"/>
<g clip-path="url(#clip0_6244_2748)">
<path d="M33 21C33 16.032 28.968 12 24 12C19.032 12 15 16.032 15 21C15 25.356 18.096 28.983 22.2 29.82V23.7H20.4V21H22.2V18.75C22.2 17.013 23.613 15.6 25.35 15.6H27.6V18.3H25.8C25.305 18.3 24.9 18.705 24.9 19.2V21H27.6V23.7H24.9V29.955C29.445 29.505 33 25.671 33 21Z" fill="white"/>
</g>
<path d="M9.72803 53.262H10.768V65.014H9.72803V53.262ZM5.85403 57.734H7.80403V58.683H5.85403V57.734ZM7.45303 53.548H8.48003V64.403H7.45303V53.548ZM0.836031 54.744H6.20503V55.628H0.836031V54.744ZM0.732031 62.128L0.602031 61.218C2.12303 61.218 4.67103 61.166 6.45203 60.932L6.53003 61.725C4.69703 62.076 2.24003 62.128 0.732031 62.128ZM1.79803 55.316H2.78603V61.465H1.79803V55.316ZM4.24203 55.316H5.23003V61.465H4.24203V55.316ZM21.219 53.249H22.298V65.027H21.219V53.249ZM16.097 54.159C17.839 54.159 19.087 55.758 19.087 58.254C19.087 60.763 17.839 62.362 16.097 62.362C14.368 62.362 13.12 60.763 13.12 58.254C13.12 55.758 14.368 54.159 16.097 54.159ZM16.097 55.134C14.953 55.134 14.147 56.356 14.147 58.254C14.147 60.165 14.953 61.413 16.097 61.413C17.254 61.413 18.047 60.165 18.047 58.254C18.047 56.356 17.254 55.134 16.097 55.134ZM29.356 54.068H30.292V54.965C30.292 57.526 27.913 59.515 25.56 60.048L25.079 59.151C27.146 58.761 29.356 56.967 29.356 54.965V54.068ZM29.551 54.068H30.487V54.965C30.487 56.98 32.71 58.761 34.764 59.151L34.283 60.048C31.943 59.515 29.551 57.539 29.551 54.965V54.068ZM24.65 62.544H35.297V63.428H24.65V62.544ZM41.367 59.593H42.433V61.621H41.367V59.593ZM36.596 59.008H47.217V59.892H36.596V59.008ZM37.779 61.257H45.904V65.014H44.825V62.128H37.779V61.257ZM38.013 53.535H39.079V54.861H44.76V53.535H45.839V57.929H38.013V53.535ZM39.079 55.706V57.071H44.76V55.706H39.079Z" fill="#373740"/>
<defs>
<clipPath id="clip0_6244_2748">
<rect width="18" height="18" fill="white" transform="translate(15 12)"/>
</clipPath>
</defs>
</svg>
