<svg width="79" height="19" viewBox="0 0 79 19" fill="none" xmlns="http://www.w3.org/2000/svg">
<path d="M12.5688 2.6875H2.17813V3.8125H4.225V6.25H2.24063V7.35938H6.63125V8.5625H1.00625V9.73438H13.7719V8.5625H8.11563V7.35938H12.5063V6.25H10.5375V3.8125H12.5688V2.6875ZM2.5375 11.8125H10.6938V12.8438H2.55313V16.1875H12.5531V15.0625H4.00625V13.8906H12.1625V10.7344H2.5375V11.8125ZM5.69375 6.25V3.8125H9.05313V6.25H5.69375ZM21.6438 3.625H15.2219V12.9219H16.3313C18.9719 12.9219 20.675 12.8359 22.6906 12.4531L22.5188 11.2344C20.675 11.5859 19.0734 11.6719 16.7219 11.6875V4.85938H21.6438V3.625ZM20.8469 8.5625H24.7375V16.3594H26.2219V2.32812H24.7375V7.32812H20.8469V8.5625ZM44.4344 10.7656H31.6688V11.9844H37.3094V16.3438H38.7781V11.9844H44.4344V10.7656ZM32.4188 8.60938L32.9656 9.79688C35.2234 9.48438 37.1453 8.44531 38.0516 7C38.9578 8.42969 40.8719 9.48438 43.1219 9.79688L43.6531 8.60938C40.9891 8.27344 38.8719 6.77344 38.7938 5.21875H43.2156V4.01562H38.7781V2.32812H37.3094V4.01562H32.8719V5.21875H37.3094C37.2156 6.78906 35.075 8.27344 32.4188 8.60938ZM56.1031 2.32812H54.6188V16.3125H56.1031V9.14062H58.275V7.90625H56.1031V2.32812ZM45.2125 12.5781L46.0406 13.7344C50.65 11.4609 52.4313 7.84375 52.4469 3.79688H45.9156V5.03125H50.9313C50.6266 8.29688 48.7203 10.8281 45.2125 12.5781Z" fill="#6D6AFE"/>
<path fill-rule="evenodd" clip-rule="evenodd" d="M71.5217 3.46603C71.5217 3.17148 71.283 2.9327 70.9884 2.9327C70.6939 2.9327 70.4551 3.17148 70.4551 3.46603L70.4551 8.96668L64.9545 8.96668C64.6599 8.96668 64.4212 9.20546 64.4212 9.50001C64.4212 9.79456 64.6599 10.0333 64.9545 10.0333L70.4551 10.0333L70.4551 15.534C70.4551 15.8285 70.6939 16.0673 70.9884 16.0673C71.283 16.0673 71.5218 15.8285 71.5218 15.534L71.5218 10.0333L77.0224 10.0334C77.317 10.0333 77.5558 9.79457 77.5558 9.50002C77.5558 9.20546 77.317 8.96668 77.0224 8.96668L71.5218 8.96668L71.5217 3.46603Z" fill="#6D6AFE"/>
</svg>
