<svg width="48" height="67" viewBox="0 0 48 67" fill="none" xmlns="http://www.w3.org/2000/svg">
<rect x="3" width="42" height="42" rx="21" fill="#FEE500"/>
<g clip-path="url(#clip0_6079_2316)">
<path opacity="0.902" fill-rule="evenodd" clip-rule="evenodd" d="M24 12.9443C19.29 12.9443 15 16.7303 15 19.9333C15 22.3333 16.558 24.4503 18.931 25.7083L17.933 29.3743C17.844 29.6993 18.213 29.9573 18.496 29.7703L22.873 26.8653C23.242 26.9013 23.618 26.9223 24 26.9223C28.97 26.9223 33 23.7933 33 19.9333C33 16.7303 28.97 12.9443 24 12.9443Z" fill="black"/>
</g>
<path d="M5.72403 54.484H6.77703C6.77703 57.877 5.63303 60.997 1.42103 63.09L0.836031 62.258C4.55403 60.425 5.72403 57.799 5.72403 54.601V54.484ZM1.47303 54.484H6.36103V55.355H1.47303V54.484ZM5.55503 57.396V58.228L1.05703 58.67L0.888031 57.708L5.55503 57.396ZM8.67503 53.249H9.76703V65.014H8.67503V53.249ZM9.46803 58.02H11.639V58.917H9.46803V58.02ZM17.683 54.484H18.736C18.736 57.877 17.592 60.997 13.38 63.09L12.795 62.258C16.513 60.425 17.683 57.799 17.683 54.601V54.484ZM13.432 54.484H18.32V55.355H13.432V54.484ZM17.514 57.396V58.228L13.016 58.67L12.847 57.708L17.514 57.396ZM20.634 53.249H21.726V65.014H20.634V53.249ZM21.427 58.02H23.598V58.917H21.427V58.02ZM29.408 59.905H30.487V62.83H29.408V59.905ZM29.954 54.029C32.437 54.029 34.218 55.238 34.218 57.11C34.218 58.982 32.437 60.191 29.954 60.191C27.471 60.191 25.677 58.982 25.677 57.11C25.677 55.238 27.471 54.029 29.954 54.029ZM29.954 54.887C28.082 54.887 26.717 55.771 26.717 57.11C26.717 58.449 28.082 59.333 29.954 59.333C31.813 59.333 33.178 58.449 33.178 57.11C33.178 55.771 31.813 54.887 29.954 54.887ZM24.65 62.622H35.297V63.519H24.65V62.622ZM36.596 59.593H47.217V60.477H36.596V59.593ZM41.367 58.007H42.433V59.892H41.367V58.007ZM37.779 61.504H45.852V65.014H44.773V62.388H37.779V61.504ZM38 57.526H45.969V58.371H38V57.526ZM38 53.574H45.917V54.419H39.066V57.916H38V53.574ZM38.754 55.524H45.605V56.343H38.754V55.524Z" fill="#373740"/>
<defs>
<clipPath id="clip0_6079_2316">
<rect width="18" height="18" fill="white" transform="translate(15 12)"/>
</clipPath>
</defs>
</svg>
