<svg width="21" height="21" viewBox="0 0 21 21" fill="none" xmlns="http://www.w3.org/2000/svg">
<path fill-rule="evenodd" clip-rule="evenodd" d="M11.1461 2.79223C12.0891 1.88144 13.3521 1.37747 14.6631 1.38886C15.9741 1.40025 17.2282 1.9261 18.1552 2.85314C19.0823 3.78018 19.6081 5.03424 19.6195 6.34523C19.6309 7.65621 19.1269 8.91922 18.2161 9.86223L18.206 9.87256L15.7061 12.3725C15.1992 12.8795 14.5892 13.2717 13.9174 13.5222C13.2457 13.7728 12.5279 13.876 11.8127 13.8248C11.0976 13.7736 10.4018 13.5692 9.77263 13.2254C9.14344 12.8816 8.59553 12.4066 8.16608 11.8325C7.89041 11.4639 7.96569 10.9417 8.33423 10.666C8.70278 10.3903 9.22502 10.4656 9.50069 10.8342C9.78699 11.2169 10.1523 11.5336 10.5717 11.7628C10.9912 11.992 11.455 12.1282 11.9318 12.1624C12.4085 12.1965 12.8871 12.1277 13.3349 11.9607C13.7828 11.7936 14.1894 11.5322 14.5274 11.1942L14.5275 11.1941L17.0221 8.69945C17.6263 8.07131 17.9605 7.23142 17.9529 6.35971C17.9453 5.48572 17.5947 4.64968 16.9767 4.03165C16.3587 3.41362 15.5226 3.06306 14.6486 3.05546C13.7766 3.04789 12.9363 3.38239 12.3081 3.98709L10.8793 5.40761C10.5529 5.7321 10.0252 5.73056 9.70075 5.40417C9.37626 5.07779 9.3778 4.55015 9.70418 4.22567L11.1375 2.80067L11.1461 2.79223Z" fill="#6D6AFE"/>
<path fill-rule="evenodd" clip-rule="evenodd" d="M7.08312 7.47744C7.75488 7.22685 8.47267 7.12367 9.18781 7.17488C9.90296 7.2261 10.5987 7.43052 11.2279 7.77428C11.8571 8.11803 12.405 8.59309 12.8345 9.16722C13.1101 9.53576 13.0348 10.058 12.6663 10.3337C12.2978 10.6093 11.7755 10.5341 11.4999 10.1655C11.2136 9.78276 10.8483 9.46606 10.4288 9.23689C10.0094 9.00772 9.54552 8.87144 9.06875 8.83729C8.59199 8.80315 8.11346 8.87194 7.66562 9.03899C7.21778 9.20605 6.81111 9.46747 6.47319 9.80551L3.97849 12.3002C3.37429 12.9284 3.04008 13.7683 3.04765 14.64C3.05525 15.514 3.40581 16.35 4.02384 16.968C4.64186 17.5861 5.47791 17.9366 6.35189 17.9442C7.2236 17.9518 8.06349 17.6176 8.69163 17.0134L10.1112 15.5938C10.4367 15.2683 10.9643 15.2683 11.2897 15.5938C11.6152 15.9192 11.6152 16.4469 11.2897 16.7723L9.86475 18.1973L9.85442 18.2074C8.91141 19.1182 7.6484 19.6222 6.33741 19.6108C5.02643 19.5994 3.77237 19.0736 2.84533 18.1465C1.91829 17.2195 1.39244 15.9654 1.38105 14.6544C1.36966 13.3435 1.87363 12.0805 2.78442 11.1374L2.79457 11.1271L5.29446 8.62722C5.29443 8.62725 5.2945 8.62718 5.29446 8.62722C5.80133 8.1202 6.41141 7.728 7.08312 7.47744Z" fill="#6D6AFE"/>
</svg>
