<svg width="60" height="60" viewBox="0 0 60 60" fill="none" xmlns="http://www.w3.org/2000/svg">
<rect width="60" height="60" rx="30" fill="#8F00FF"/>
<path fill-rule="evenodd" clip-rule="evenodd" d="M28.9147 37.1023C27.4069 36.8758 25.9953 36.2553 24.866 35.275C24.8164 35.2311 24.7667 35.1846 24.7196 35.1404L24.7109 35.1322C24.6054 35.0361 24.5061 34.9368 24.4069 34.8344C24.3076 34.732 24.2145 34.6265 24.1214 34.5211L24.074 34.4657C23.9992 34.3785 23.9237 34.2906 23.8546 34.1984C22.8029 32.8488 22.2289 31.2014 22.2289 29.4578C22.2289 27.6646 22.8339 25.9676 23.9446 24.5963C23.9555 24.5823 23.9663 24.5691 23.9772 24.556C23.988 24.5428 23.9989 24.5296 24.0098 24.5156C24.1618 24.3326 24.32 24.1557 24.4906 23.9882C24.8381 23.6407 25.2135 23.3367 25.6106 23.0668C25.7254 22.9892 25.8402 22.9117 25.9581 22.8434C25.9814 22.8294 26.0054 22.8155 26.0294 22.8015C26.0535 22.7876 26.0775 22.7736 26.1008 22.7596C26.9633 22.2757 27.9188 21.9499 28.9178 21.7979C29.5849 21.6986 30.1712 21.3449 30.5715 20.802C30.9717 20.2591 31.1392 19.592 31.0368 18.925C30.9344 18.258 30.5808 17.6685 30.0409 17.2683C29.5321 16.8929 28.9178 16.7285 28.2942 16.7905V16.7874L28.2384 16.7967C28.226 16.7983 28.2136 16.799 28.2012 16.7998C28.1888 16.8006 28.1764 16.8014 28.1639 16.8029C27.9406 16.837 27.7203 16.8774 27.5 16.9208C25.0212 17.3986 22.7377 18.593 20.9166 20.4142C15.9403 25.3905 15.9309 33.4848 20.8918 38.4705L20.9197 38.4984L20.9228 38.5015L20.9259 38.5046C22.9394 40.515 25.5082 41.7653 28.2911 42.1252V42.1097C28.9147 42.1717 29.5321 42.0073 30.0378 41.6319C30.5808 41.2317 30.9344 40.6422 31.0337 39.9752C31.133 39.3082 30.9686 38.6411 30.5684 38.0982C30.1681 37.5553 29.5818 37.2016 28.9147 37.1023ZM36.9687 24.587C38.9977 24.587 40.6483 22.983 40.6483 21.013C40.6483 18.984 38.9977 17.3334 36.9687 17.3334C34.9987 17.3334 33.3947 18.984 33.3947 21.013C33.3947 22.983 34.9987 24.587 36.9687 24.587ZM36.6585 32.1694C39.2118 32.1694 40.1519 33.5717 40.49 34.7476C41.2005 37.2171 39.7672 41.5047 36.8508 43.329L36.2924 43.6795V39.302C34.4775 39.1158 33.0814 37.5894 33.0814 35.7434C33.0814 33.7734 34.6884 32.1694 36.6585 32.1694Z" fill="white"/>
</svg>
