<svg width="133" height="24" viewBox="0 0 133 24" fill="none" xmlns="http://www.w3.org/2000/svg">
<g id="logo">
<g id="Linkbrary">
<path d="M5.20583 15.7049V0.792232H0V20.2718H14.9638V15.7049H5.20583Z" fill="#6D6AFE"/>
<path d="M21.6801 20.2718V5.12621H16.4743V20.2718H21.6801ZM21.6801 3.96117V0H16.4743V3.96117H21.6801Z" fill="#6D6AFE"/>
<path d="M33.1713 4.66019C31.117 4.66019 29.5062 5.42913 28.409 6.71068V5.12621H23.2032V20.2718H28.409V13.4913C28.4557 10.5786 29.7397 9.34369 31.8407 9.34369C33.6382 9.34369 34.3385 10.2524 34.3385 12.4194V20.2718H39.5444V11.5107C39.5444 6.92039 37.8169 4.66019 33.1713 4.66019Z" fill="#6D6AFE"/>
<path d="M46.0405 10.0893V0H40.8347V20.2718H46.0405V16.7068L48.2116 14.167L50.7328 20.2718H56.4755L53.184 12.233H49.869L56.0087 5.12621H50.3359L46.0405 10.0893Z" fill="#6D6AFE"/>
<path d="M67.0849 20.7379C70.2364 20.7379 74.1116 18.9437 74.1116 12.699C74.1116 6.45437 70.2364 4.66019 67.0849 4.66019C65.3341 4.66019 63.77 5.17281 62.5094 6.03495V0H57.3035V20.2718H62.5094V19.3631C63.77 20.2485 65.3341 20.7379 67.0849 20.7379ZM65.7076 16.1942C63.91 16.1942 62.5094 15.2854 62.5094 12.699V12.5126C62.5794 10.0893 63.9567 9.20388 65.7076 9.20388C67.7152 9.20388 68.9058 10.2524 68.9058 12.699C68.9058 15.1689 67.7152 16.1942 65.7076 16.1942Z" fill="#6D6AFE"/>
<path d="M74.935 20.2718H80.1409V13.9573C80.1876 11.0214 81.5182 9.32039 86.1638 9.32039V4.66019C83.3624 4.66019 81.3781 5.63883 80.1409 7.1068V5.12621H74.935V20.2718Z" fill="#6D6AFE"/>
<path d="M93.541 20.7379C95.2685 20.7379 96.8559 20.2485 98.1165 19.3631V20.2718H103.322V5.12621H98.1165V6.03495C96.8559 5.17281 95.2685 4.66019 93.541 4.66019C90.3895 4.66019 86.5143 6.45437 86.5143 12.699C86.5143 18.9437 90.3895 20.7379 93.541 20.7379ZM94.9183 16.1942C92.9107 16.1942 91.7201 15.1689 91.7201 12.699C91.7201 10.2524 92.9107 9.20388 94.9183 9.20388C96.7159 9.20388 98.1165 10.1359 98.1165 12.699C98.1165 15.2854 96.7159 16.1942 94.9183 16.1942Z" fill="#6D6AFE"/>
<path d="M104.613 20.2718H109.819V13.9573C109.865 11.0214 111.196 9.32039 115.841 9.32039V4.66019C113.04 4.66019 111.056 5.63883 109.819 7.1068V5.12621H104.613V20.2718Z" fill="#6D6AFE"/>
<path d="M127.794 5.12621V11.7204C127.234 12.3495 126.23 12.6058 125.063 12.6058C122.588 12.6058 121.865 11.8369 121.865 10.4155V5.12621H116.659V10.7883C116.659 14.9359 119.6 17.1728 123.686 17.1728C125.203 17.1728 126.604 16.8466 127.794 16.2874V16.8466C127.794 18.9204 127 19.666 124.946 19.666C123.242 19.666 122.425 19.1534 122.191 17.965H116.962C117.383 22.2524 119.694 24 124.946 24C130.666 24 133 21.9029 133 16.4505V5.12621H127.794Z" fill="#6D6AFE"/>=======
<svg width="212" height="38" viewBox="0 0 212 38" fill="none" xmlns="http://www.w3.org/2000/svg">
<g id="logo">
<g id="Linkbrary">
<path d="M8.95087 24.866V1.25437H0.708298V32.0971H24.4011V24.866H8.95087Z" fill="#6D6AFE"/>
<path d="M35.0352 32.0971V8.1165H26.7926V32.0971H35.0352ZM35.0352 6.27184V0H26.7926V6.27184H35.0352Z" fill="#6D6AFE"/>
<path d="M53.2295 7.37864C49.9769 7.37864 47.4265 8.59612 45.6893 10.6252V8.1165H37.4467V32.0971H45.6893V21.3612C45.7632 16.7495 47.7961 14.7942 51.1227 14.7942C53.9688 14.7942 55.0777 16.233 55.0777 19.6641V32.0971H63.3202V18.2252C63.3202 10.9573 60.585 7.37864 53.2295 7.37864Z" fill="#6D6AFE"/>
<path d="M73.6058 15.9748V0H65.3633V32.0971H73.6058V26.4524L77.0433 22.4311L81.0352 32.0971H90.1279L84.9163 19.3689H79.6676L89.3887 8.1165H80.4069L73.6058 15.9748Z" fill="#6D6AFE"/>
<path d="M106.926 32.835C111.916 32.835 118.052 29.9942 118.052 20.1068C118.052 10.2194 111.916 7.37864 106.926 7.37864C104.154 7.37864 101.677 8.19029 99.6815 9.55534V0H91.4389V32.0971H99.6815V30.6583C101.677 32.0602 104.154 32.835 106.926 32.835ZM104.745 25.6408C101.899 25.6408 99.6815 24.2019 99.6815 20.1068V19.8117C99.7924 15.9748 101.973 14.5728 104.745 14.5728C107.924 14.5728 109.809 16.233 109.809 20.1068C109.809 24.0175 107.924 25.6408 104.745 25.6408Z" fill="#6D6AFE"/>
<path d="M119.355 32.0971H127.598V22.099C127.672 17.4505 129.779 14.7573 137.134 14.7573V7.37864C132.699 7.37864 129.557 8.92815 127.598 11.2524V8.1165H119.355V32.0971Z" fill="#6D6AFE"/>
<path d="M148.815 32.835C151.55 32.835 154.064 32.0602 156.06 30.6583V32.0971H164.302V8.1165H156.06V9.55534C154.064 8.19029 151.55 7.37864 148.815 7.37864C143.825 7.37864 137.689 10.2194 137.689 20.1068C137.689 29.9942 143.825 32.835 148.815 32.835ZM150.996 25.6408C147.817 25.6408 145.932 24.0175 145.932 20.1068C145.932 16.233 147.817 14.5728 150.996 14.5728C153.842 14.5728 156.06 16.0485 156.06 20.1068C156.06 24.2019 153.842 25.6408 150.996 25.6408Z" fill="#6D6AFE"/>
<path d="M166.345 32.0971H174.588V22.099C174.662 17.4505 176.768 14.7573 184.124 14.7573V7.37864C179.688 7.37864 176.547 8.92815 174.588 11.2524V8.1165H166.345V32.0971Z" fill="#6D6AFE"/>
<path d="M203.049 8.1165V18.5573C202.162 19.5534 200.573 19.9592 198.725 19.9592C194.807 19.9592 193.661 18.7417 193.661 16.4913V8.1165H185.418V17.0816C185.418 23.6485 190.075 27.1903 196.544 27.1903C198.946 27.1903 201.164 26.6738 203.049 25.7883V26.6738C203.049 29.9573 201.792 31.1379 198.54 31.1379C195.842 31.1379 194.548 30.3262 194.178 28.4447H185.899C186.564 35.233 190.223 38 198.54 38C207.595 38 211.292 34.6796 211.292 26.0466V8.1165H203.049Z" fill="#6D6AFE"/>
</g>
</g>
</svg>
