<svg width="52" height="67" viewBox="0 0 52 67" fill="none" xmlns="http://www.w3.org/2000/svg">
<rect x="5" width="42" height="42" rx="21" fill="#9D9D9D" fill-opacity="0.04"/>
<g clip-path="url(#clip0_6079_2326)">
<path fill-rule="evenodd" clip-rule="evenodd" d="M26.5815 14.063C27.4302 13.2433 28.5669 12.7897 29.7468 12.8C30.9267 12.8102 32.0554 13.2835 32.8897 14.1178C33.724 14.9522 34.1973 16.0808 34.2075 17.2607C34.2178 18.4406 33.7642 19.5773 32.9445 20.426L32.9354 20.4353L30.6855 22.6852C30.2293 23.1416 29.6803 23.4945 29.0757 23.72C28.4711 23.9455 27.8251 24.0384 27.1815 23.9923C26.5378 23.9462 25.9116 23.7622 25.3454 23.4529C24.7791 23.1435 24.286 22.7159 23.8995 22.1992C23.6514 21.8675 23.7191 21.3975 24.0508 21.1494C24.3825 20.9013 24.8525 20.9691 25.1006 21.3007C25.3583 21.6452 25.687 21.9303 26.0645 22.1365C26.4421 22.3428 26.8595 22.4654 27.2886 22.4961C27.7177 22.5269 28.1484 22.465 28.5514 22.3146C28.9545 22.1643 29.3205 21.929 29.6246 21.6247L29.6247 21.6246L31.8699 19.3795C32.4136 18.8142 32.7144 18.0583 32.7076 17.2737C32.7008 16.4871 32.3853 15.7347 31.829 15.1785C31.2728 14.6223 30.5204 14.3068 29.7338 14.2999C28.9489 14.2931 28.1927 14.5942 27.6273 15.1384L26.3413 16.4168C26.0476 16.7089 25.5727 16.7075 25.2807 16.4138C24.9886 16.12 24.99 15.6451 25.2838 15.3531L26.5738 14.0706L26.5815 14.063Z" fill="#6D6AFE"/>
<path fill-rule="evenodd" clip-rule="evenodd" d="M22.9243 18.2799C23.5289 18.0544 24.1749 17.9615 24.8185 18.0076C25.4621 18.0537 26.0883 18.2377 26.6546 18.547C27.2209 18.8564 27.714 19.284 28.1005 19.8007C28.3486 20.1324 28.2808 20.6024 27.9491 20.8505C27.6175 21.0986 27.1474 21.0308 26.8993 20.6992C26.6417 20.3547 26.3129 20.0696 25.9354 19.8634C25.5579 19.6571 25.1404 19.5345 24.7113 19.5038C24.2823 19.473 23.8516 19.5349 23.4485 19.6853C23.0455 19.8356 22.6795 20.0709 22.3753 20.3752L20.1301 22.6204C19.5863 23.1857 19.2855 23.9416 19.2923 24.7262C19.2992 25.5128 19.6147 26.2652 20.1709 26.8214C20.7271 27.3776 21.4796 27.6931 22.2662 27.7C23.0507 27.7068 23.8066 27.406 24.3719 26.8622L25.6496 25.5846C25.9425 25.2917 26.4173 25.2917 26.7102 25.5846C27.0031 25.8775 27.0031 26.3524 26.7102 26.6453L25.4277 27.9278L25.4184 27.9369C24.5697 28.7566 23.433 29.2102 22.2531 29.1999C21.0732 29.1897 19.9446 28.7164 19.1103 27.8821C18.2759 27.0477 17.8027 25.9191 17.7924 24.7392C17.7822 23.5593 18.2357 22.4226 19.0554 21.5739L19.0646 21.5646L21.3145 19.3147C21.3144 19.3147 21.3145 19.3147 21.3145 19.3147C21.7707 18.8584 22.3197 18.5054 22.9243 18.2799Z" fill="#6D6AFE"/>
</g>
<path d="M9.44491 53.275H10.5369V60.49H9.44491V53.275ZM1.50191 58.891H2.45091C4.58291 58.891 6.15591 58.826 8.04091 58.514L8.15791 59.398C6.22091 59.723 4.63491 59.775 2.45091 59.775H1.50191V58.891ZM1.47591 54.003H6.80591V57.253H2.55491V59.385H1.50191V56.408H5.75291V54.887H1.47591V54.003ZM6.66291 60.75C9.10691 60.75 10.6149 61.517 10.6149 62.869C10.6149 64.221 9.10691 65.001 6.66291 65.001C4.20591 65.001 2.72391 64.221 2.72391 62.869C2.72391 61.517 4.20591 60.75 6.66291 60.75ZM6.66291 61.608C4.86891 61.608 3.78991 62.063 3.78991 62.869C3.78991 63.675 4.86891 64.143 6.66291 64.143C8.45691 64.143 9.53591 63.675 9.53591 62.869C9.53591 62.063 8.45691 61.608 6.66291 61.608ZM14.1239 54.458H21.5859V55.342H14.1239V54.458ZM12.8629 62.479H23.4839V63.389H12.8629V62.479ZM21.1179 54.458H22.1709V55.901C22.1709 57.63 22.1709 59.229 21.6769 61.634L20.6109 61.53C21.1179 59.268 21.1179 57.591 21.1179 55.901V54.458ZM21.3909 57.708V58.514L13.9679 58.917L13.8119 58.02L21.3909 57.708ZM28.4651 59.32H39.0861V60.204H28.4651V59.32ZM33.2491 57.565H34.3151V59.593H33.2491V57.565ZM29.6481 61.348H37.7731V65.014H36.6941V62.232H29.6481V61.348ZM29.8821 53.535H30.9481V54.861H36.6291V53.535H37.7081V57.929H29.8821V53.535ZM30.9481 55.706V57.071H36.6291V55.706H30.9481ZM43.3101 54.276H44.1941V56.382C44.1941 58.982 42.7901 61.517 40.9311 62.505L40.2681 61.647C41.9711 60.789 43.3101 58.527 43.3101 56.382V54.276ZM43.5051 54.276H44.3761V56.382C44.3761 58.449 45.6891 60.594 47.3531 61.426L46.6901 62.284C44.8701 61.309 43.5051 58.904 43.5051 56.382V54.276ZM48.3801 53.262H49.4721V65.014H48.3801V53.262ZM49.2121 58.02H51.3961V58.93H49.2121V58.02Z" fill="#373740"/>
<defs>
<clipPath id="clip0_6079_2326">
<rect width="18" height="18" fill="white" transform="translate(17 12)"/>
</clipPath>
</defs>
</svg>
