<svg width="47" height="19" viewBox="0 0 47 19" fill="none" xmlns="http://www.w3.org/2000/svg">
<g clip-path="url(#clip0_6067_3219)">
<path fill-rule="evenodd" clip-rule="evenodd" d="M7.3951 11.045C7.1315 10.7813 7.1315 10.354 7.3951 10.0904L13.8296 3.52012H10.368C9.99525 3.52012 9.69304 3.21792 9.69304 2.84512C9.69304 2.47233 9.99525 2.17012 10.368 2.17012H15.4592C15.832 2.17012 16.1342 2.47233 16.1342 2.84512L16.1342 7.93629C16.1342 8.30909 15.832 8.61129 15.4592 8.61129C15.0864 8.61129 14.7842 8.30908 14.7842 7.93629L14.7842 4.47472L8.3497 11.045C8.0861 11.3086 7.65871 11.3086 7.3951 11.045Z" fill="#9FA6B2"/>
<path fill-rule="evenodd" clip-rule="evenodd" d="M4.4999 4.77505C3.87858 4.77505 3.3749 5.27873 3.3749 5.90005V14C3.3749 14.6214 3.87858 15.125 4.4999 15.125H12.5999C13.2212 15.125 13.7249 14.6214 13.7249 14V10.85C13.7249 10.4773 14.0271 10.175 14.3999 10.175C14.7727 10.175 15.0749 10.4773 15.0749 10.85V14C15.0749 15.367 13.9668 16.475 12.5999 16.475H4.4999C3.133 16.475 2.0249 15.367 2.0249 14V5.90005C2.0249 4.53314 3.133 3.42505 4.4999 3.42505H7.6499C8.02269 3.42505 8.3249 3.72726 8.3249 4.10005C8.3249 4.47284 8.02269 4.77505 7.6499 4.77505H4.4999Z" fill="#9FA6B2"/>
</g>
<path d="M27.9746 10.582C30.6543 10.5957 32.3496 11.4434 32.3633 12.9062C32.3496 14.3418 30.6543 15.2031 27.9746 15.2031C25.3086 15.2031 23.5996 14.3418 23.5996 12.9062C23.5996 11.4434 25.3086 10.5957 27.9746 10.582ZM27.9746 11.7305C26.1973 11.7305 25.1172 12.1543 25.1309 12.9062C25.1172 13.6309 26.1973 14.0273 27.9746 14.0273C29.7656 14.0273 30.8457 13.6309 30.8594 12.9062C30.8457 12.1543 29.7656 11.7305 27.9746 11.7305ZM32.2812 3.44531V4.4707C32.2812 5.44141 32.2812 6.48047 31.9395 7.75195L30.4355 7.61523C30.7432 6.41211 30.7637 5.54395 30.7637 4.64844H23.7227V3.44531H32.2812ZM33.6484 8.46289V9.69336H22.4375V8.46289H26.7852V6.2207H28.2891V8.46289H33.6484ZM45.7891 9.78906V11.0195H43.041V15.2168H41.4961V11.0195H38.7617V15.2168H37.2031V11.0195H34.4961V9.78906H45.7891ZM40.1152 3.29492C42.7402 3.30859 44.5723 4.375 44.5723 6.05664C44.5723 7.71094 42.7402 8.76367 40.1152 8.76367C37.4766 8.76367 35.6719 7.71094 35.6855 6.05664C35.6719 4.375 37.4766 3.30859 40.1152 3.29492ZM40.1152 4.52539C38.3652 4.52539 37.2305 5.08594 37.2441 6.05664C37.2305 7 38.3652 7.56055 40.1152 7.56055C41.8652 7.56055 43 7 43 6.05664C43 5.08594 41.8652 4.52539 40.1152 4.52539Z" fill="#9FA6B2"/>
<defs>
<clipPath id="clip0_6067_3219">
<rect width="18" height="18" fill="white" transform="translate(0 0.5)"/>
</clipPath>
</defs>
</svg>
